<?xml version="1.0" encoding="utf-8"?>
<!-- Generator: Adobe Illustrator 26.3.0, SVG Export Plug-In . SVG Version: 6.00 Build 0)  -->
<svg version="1.1" id="Layer_1" xmlns="http://www.w3.org/2000/svg" xmlns:xlink="http://www.w3.org/1999/xlink" x="0px" y="0px"
	 viewBox="0 0 841.89 595.28" style="enable-background:new 0 0 841.89 595.28;" xml:space="preserve">
<style type="text/css">
	.st0{clip-path:url(#SVGID_00000044176176254748731180000014489755068415320217_);fill:#E02229;}
	.st1{fill:url(#SVGID_00000166674495177237246650000015609509396526343607_);stroke:#2488C5;stroke-width:11;stroke-miterlimit:10;}
	.st2{fill:url(#SVGID_00000115505003057874552200000009066756785668590003_);}
	.st3{fill:url(#SVGID_00000120560291401117297790000014041610744206865321_);}
	.st4{fill:url(#SVGID_00000179617773686852217860000004629686476235462320_);}
	.st5{fill:url(#SVGID_00000066491121907883221070000017023031431514072985_);}
	.st6{fill:url(#SVGID_00000076596591762541450850000001845195078701304724_);}
	.st7{fill:url(#SVGID_00000091005293166667845310000015740892280505345418_);}
	.st8{fill:url(#SVGID_00000045620102948039577990000008853785530731532699_);}
	.st9{fill:url(#SVGID_00000132809189559841044020000006977499759035980223_);}
	.st10{fill:url(#SVGID_00000074429775468977320970000001828399335756710045_);}
	.st11{fill:url(#SVGID_00000093165043627671413680000015004397407231556537_);}
	.st12{fill:url(#SVGID_00000081619269518008772320000015354955610346796689_);}
	.st13{fill:#FFFFFF;}
	.st14{fill:none;stroke:#DC4B9B;stroke-miterlimit:10;}
	.st15{fill:url(#SVGID_00000070824765552993846590000000650225853351628675_);}
	
		.st16{clip-path:url(#SVGID_00000082368635168335703970000000368973967539464620_);fill:none;stroke:#2388C6;stroke-width:3;stroke-miterlimit:10;}
	.st17{fill:none;stroke:#2388C6;stroke-width:3;stroke-miterlimit:10;}
	.st18{fill:#E02229;}
	.st19{fill:#ED1C24;}
	.st20{fill:#FFFFFF;stroke:#000000;stroke-miterlimit:10;}
	.st21{fill:none;stroke:#000000;stroke-width:0.9;stroke-miterlimit:10;}
	.st22{fill:#FFFFFF;stroke:#000000;stroke-width:0.9;stroke-miterlimit:10;}
	.st23{fill:#FFFFFF;stroke:#000000;stroke-width:0.85;stroke-miterlimit:10;}
	.st24{fill:#FFFFFF;stroke:#CD1F48;stroke-width:0.85;stroke-miterlimit:10;}
	.st25{fill:none;stroke:#000000;stroke-width:0.85;stroke-miterlimit:10;}
	.st26{fill:none;stroke:#CD1F48;stroke-width:0.85;stroke-miterlimit:10;}
	.st27{fill:#FFF200;}
	.st28{fill:url(#SVGID_00000107548816662023634390000009389326627903117757_);stroke:#2388C6;stroke-miterlimit:10;}
	.st29{fill:url(#SVGID_00000030467528371146765410000006985242072799165331_);stroke:#2388C6;stroke-miterlimit:10;}
	.st30{fill:url(#SVGID_00000150785629879439193360000003038613665150085034_);stroke:#2388C6;stroke-miterlimit:10;}
	.st31{fill:url(#SVGID_00000036937560520129923110000014429465428253207727_);stroke:#2388C6;stroke-miterlimit:10;}
	.st32{fill:url(#SVGID_00000152965749593907039970000010638917727286280108_);stroke:#2388C6;stroke-miterlimit:10;}
	.st33{fill:none;stroke:#2388C6;stroke-miterlimit:10;}
	.st34{fill:none;stroke:#2388C6;stroke-miterlimit:10;stroke-dasharray:2.0151,2.0151;}
	.st35{fill:none;stroke:#2388C6;stroke-miterlimit:10;stroke-dasharray:1.988,1.988;}
	.st36{fill:#E91E57;}
	.st37{fill:none;stroke:#E91E57;stroke-miterlimit:10;}
</style>
<g>
	<defs>
		<rect id="SVGID_1_" x="303.43" y="341.98" width="213.63" height="77.87"/>
	</defs>
	<clipPath id="SVGID_00000011010462643209730060000003856718227131298710_">
		<use xlink:href="#SVGID_1_"  style="overflow:visible;"/>
	</clipPath>
	<path style="clip-path:url(#SVGID_00000011010462643209730060000003856718227131298710_);fill:#E02229;" d="M411.87,246.4
		c0,0,13.42-12.2,25.89-16.05c12.47-3.85,30.68-10.06,64.97-11.99c-1.29,3.27-2.79,6.8-3.64,13.25
		c-0.86,6.45-16.61,109.84-18.32,152.65c-7.83,0-38.96,2.46-53.46,10.81c-5.37,3.27-16.39,13.06-15.75,22.69
		c-0.03-12.42-1.71-17.48,4.61-22.8c4.67-3.94,11.76-9.35,29.93-13.7c8.08-1.94,18.35-3.05,31.57-4.78
		c0.64-8.56,1.27-22.77,1.39-24.97c0.11-1.84,1.65-20.2,4.18-42.06c3.74-32.34,9.7-72.81,12-81.88c-0.07-0.64,0.21-1.71-6.29-1.86
		c-2.98-0.07-11.44,0.02-21,1.64c-11.27,1.91-24.12,5.64-32.05,9.42C421.23,243.76,411.87,246.4,411.87,246.4z"/>
	<path style="clip-path:url(#SVGID_00000011010462643209730060000003856718227131298710_);fill:#E02229;" d="M410.38,246.4
		c0,0-13.42-12.2-25.89-16.05c-12.47-3.85-30.68-10.06-64.97-11.99c1.29,3.27,2.79,6.8,3.64,13.25
		c0.86,6.45,16.61,109.84,18.32,152.65c7.83,0,38.96,2.46,53.46,10.81c5.37,3.27,17.21,13.06,16.56,22.69
		c0.03-12.42,0.89-17.48-5.42-22.8c-4.67-3.94-11.76-9.35-29.93-13.7c-8.08-1.94-18.35-3.05-31.57-4.78
		c-0.64-8.56-1.27-22.77-1.39-24.97c-0.11-1.84-1.65-20.2-4.18-42.06c-3.74-32.34-9.7-72.81-12-81.88c0.07-0.64-0.21-1.71,6.29-1.86
		c2.98-0.07,11.44,0.02,21,1.64c11.27,1.91,24.12,5.64,32.05,9.42C401.02,243.76,410.38,246.4,410.38,246.4z"/>
</g>
<linearGradient id="SVGID_00000145056947068634145200000004413993558321408167_" gradientUnits="userSpaceOnUse" x1="920.6212" y1="310.0355" x2="1225.0138" y2="310.0355" gradientTransform="matrix(-1 0 0 1 1488.7567 0)">
	<stop  offset="0" style="stop-color:#86C3EA"/>
	<stop  offset="0.1089" style="stop-color:#CAEBFC"/>
	<stop  offset="0.2374" style="stop-color:#F5FBFE"/>
	<stop  offset="0.8268" style="stop-color:#FFFFFF"/>
	<stop  offset="0.9134" style="stop-color:#DDF2FD"/>
	<stop  offset="1" style="stop-color:#7CBFE9"/>
</linearGradient>
<path style="fill:url(#SVGID_00000145056947068634145200000004413993558321408167_);stroke:#2488C5;stroke-width:11;stroke-miterlimit:10;" d="
	M568.14,413.57c0,0,0-227.24,0-277.15c-73.87,4.25-151.92-50.37-151.92-50.37s-0.3-0.18-0.56,0c0,0-78.04,54.61-151.91,50.37
	c0,49.91,0,277.15,0,277.15v3.45c0,64.66,68.14,117.07,152.2,117.07s152.2-52.42,152.2-117.07V413.57z"/>
<linearGradient id="SVGID_00000054267551887784018130000009696687436286296498_" gradientUnits="userSpaceOnUse" x1="414.7143" y1="121.7383" x2="414.7143" y2="165.5947">
	<stop  offset="0" style="stop-color:#FCFBE4"/>
	<stop  offset="0.1047" style="stop-color:#F7F4B4"/>
	<stop  offset="0.2375" style="stop-color:#F3EE7A"/>
	<stop  offset="0.3329" style="stop-color:#F1EB4A"/>
	<stop  offset="0.3806" style="stop-color:#F0E934"/>
	<stop  offset="0.9749" style="stop-color:#F0E934"/>
</linearGradient>
<polygon style="fill:url(#SVGID_00000054267551887784018130000009696687436286296498_);" points="412.18,170.14 417.25,170.14 
	421.34,114.32 408.09,114.32 "/>
<linearGradient id="SVGID_00000110432703727041667540000004916519317851793299_" gradientUnits="userSpaceOnUse" x1="434.6213" y1="129.9325" x2="414.3482" y2="165.0465">
	<stop  offset="0" style="stop-color:#FCFBE4"/>
	<stop  offset="0.1047" style="stop-color:#F7F4B4"/>
	<stop  offset="0.2375" style="stop-color:#F3EE7A"/>
	<stop  offset="0.3329" style="stop-color:#F1EB4A"/>
	<stop  offset="0.3806" style="stop-color:#F0E934"/>
	<stop  offset="0.9749" style="stop-color:#F0E934"/>
</linearGradient>
<polygon style="fill:url(#SVGID_00000110432703727041667540000004916519317851793299_);" points="412.8,169.01 414.24,169.53 
	443.75,127.29 432.32,120.75 "/>
<linearGradient id="SVGID_00000176728497180875737730000002841928459796005039_" gradientUnits="userSpaceOnUse" x1="455.1326" y1="151.9663" x2="416.3116" y2="151.9663">
	<stop  offset="0" style="stop-color:#FCFBE4"/>
	<stop  offset="0.1047" style="stop-color:#F7F4B4"/>
	<stop  offset="0.2375" style="stop-color:#F3EE7A"/>
	<stop  offset="0.3329" style="stop-color:#F1EB4A"/>
	<stop  offset="0.3806" style="stop-color:#F0E934"/>
	<stop  offset="0.9749" style="stop-color:#F0E934"/>
</linearGradient>
<polygon style="fill:url(#SVGID_00000176728497180875737730000002841928459796005039_);" points="412.29,166.64 414,168.86 
	461.7,146.63 454.72,135.08 "/>
<linearGradient id="SVGID_00000165206963870686972680000016302792792945049496_" gradientUnits="userSpaceOnUse" x1="457.1779" y1="166.3225" x2="417.1257" y2="166.3225">
	<stop  offset="0" style="stop-color:#FCFBE4"/>
	<stop  offset="0.1047" style="stop-color:#F7F4B4"/>
	<stop  offset="0.2375" style="stop-color:#F3EE7A"/>
	<stop  offset="0.3329" style="stop-color:#F1EB4A"/>
	<stop  offset="0.3806" style="stop-color:#F0E934"/>
	<stop  offset="0.9749" style="stop-color:#F0E934"/>
</linearGradient>
<polygon style="fill:url(#SVGID_00000165206963870686972680000016302792792945049496_);" points="412.97,165.5 413.32,168.18 
	463.95,173.43 463.77,159.22 "/>
<linearGradient id="SVGID_00000110471855196379190530000003745985407747970699_" gradientUnits="userSpaceOnUse" x1="455.3165" y1="181.5484" x2="416.6427" y2="181.5484">
	<stop  offset="0" style="stop-color:#FCFBE4"/>
	<stop  offset="0.1047" style="stop-color:#F7F4B4"/>
	<stop  offset="0.2375" style="stop-color:#F3EE7A"/>
	<stop  offset="0.3329" style="stop-color:#F1EB4A"/>
	<stop  offset="0.3806" style="stop-color:#F0E934"/>
	<stop  offset="0.9749" style="stop-color:#F0E934"/>
</linearGradient>
<polygon style="fill:url(#SVGID_00000110471855196379190530000003745985407747970699_);" points="413.64,165.07 412.63,168.09 
	454.94,198.03 461.86,185.49 "/>
<linearGradient id="SVGID_00000114065161150004210900000013729729246649794966_" gradientUnits="userSpaceOnUse" x1="439.8687" y1="188.2466" x2="414.5822" y2="188.2466">
	<stop  offset="0" style="stop-color:#FCFBE4"/>
	<stop  offset="0.1047" style="stop-color:#F7F4B4"/>
	<stop  offset="0.2375" style="stop-color:#F3EE7A"/>
	<stop  offset="0.3329" style="stop-color:#F1EB4A"/>
	<stop  offset="0.3806" style="stop-color:#F0E934"/>
	<stop  offset="0.9749" style="stop-color:#F0E934"/>
</linearGradient>
<polygon style="fill:url(#SVGID_00000114065161150004210900000013729729246649794966_);" points="414.31,165.51 411.96,167.66 
	432.69,210.98 444.15,203.84 "/>
<linearGradient id="SVGID_00000168096027496974689510000010392237569614011306_" gradientUnits="userSpaceOnUse" x1="481.6213" y1="129.9325" x2="461.3482" y2="165.0465" gradientTransform="matrix(-1 0 0 1 875.9113 0)">
	<stop  offset="0" style="stop-color:#FCFBE4"/>
	<stop  offset="0.1047" style="stop-color:#F7F4B4"/>
	<stop  offset="0.2375" style="stop-color:#F3EE7A"/>
	<stop  offset="0.3329" style="stop-color:#F1EB4A"/>
	<stop  offset="0.3806" style="stop-color:#F0E934"/>
	<stop  offset="0.9749" style="stop-color:#F0E934"/>
</linearGradient>
<polygon style="fill:url(#SVGID_00000168096027496974689510000010392237569614011306_);" points="416.11,169.01 414.67,169.53 
	385.16,127.29 396.59,120.75 "/>
<linearGradient id="SVGID_00000002381861134328417760000001984490125554807457_" gradientUnits="userSpaceOnUse" x1="502.1326" y1="151.9663" x2="463.3116" y2="151.9663" gradientTransform="matrix(-1 0 0 1 875.9113 0)">
	<stop  offset="0" style="stop-color:#FCFBE4"/>
	<stop  offset="0.1047" style="stop-color:#F7F4B4"/>
	<stop  offset="0.2375" style="stop-color:#F3EE7A"/>
	<stop  offset="0.3329" style="stop-color:#F1EB4A"/>
	<stop  offset="0.3806" style="stop-color:#F0E934"/>
	<stop  offset="0.9749" style="stop-color:#F0E934"/>
</linearGradient>
<polygon style="fill:url(#SVGID_00000002381861134328417760000001984490125554807457_);" points="416.63,166.64 414.91,168.86 
	367.21,146.63 374.2,135.08 "/>
<linearGradient id="SVGID_00000011751312878701345400000014714438572208675509_" gradientUnits="userSpaceOnUse" x1="504.1779" y1="166.3225" x2="464.1257" y2="166.3225" gradientTransform="matrix(-1 0 0 1 875.9113 0)">
	<stop  offset="0" style="stop-color:#FCFBE4"/>
	<stop  offset="0.1047" style="stop-color:#F7F4B4"/>
	<stop  offset="0.2375" style="stop-color:#F3EE7A"/>
	<stop  offset="0.3329" style="stop-color:#F1EB4A"/>
	<stop  offset="0.3806" style="stop-color:#F0E934"/>
	<stop  offset="0.9749" style="stop-color:#F0E934"/>
</linearGradient>
<polygon style="fill:url(#SVGID_00000011751312878701345400000014714438572208675509_);" points="415.94,165.5 415.59,168.18 
	364.96,173.43 365.14,159.22 "/>
<linearGradient id="SVGID_00000035526055071209391510000001870081462212936843_" gradientUnits="userSpaceOnUse" x1="502.3165" y1="181.5484" x2="463.6427" y2="181.5484" gradientTransform="matrix(-1 0 0 1 875.9113 0)">
	<stop  offset="0" style="stop-color:#FCFBE4"/>
	<stop  offset="0.1047" style="stop-color:#F7F4B4"/>
	<stop  offset="0.2375" style="stop-color:#F3EE7A"/>
	<stop  offset="0.3329" style="stop-color:#F1EB4A"/>
	<stop  offset="0.3806" style="stop-color:#F0E934"/>
	<stop  offset="0.9749" style="stop-color:#F0E934"/>
</linearGradient>
<polygon style="fill:url(#SVGID_00000035526055071209391510000001870081462212936843_);" points="415.27,165.07 416.28,168.09 
	373.97,198.03 367.05,185.49 "/>
<linearGradient id="SVGID_00000101068555321815121930000011281427569659628441_" gradientUnits="userSpaceOnUse" x1="486.8687" y1="188.2466" x2="461.5822" y2="188.2466" gradientTransform="matrix(-1 0 0 1 875.9113 0)">
	<stop  offset="0" style="stop-color:#FCFBE4"/>
	<stop  offset="0.1047" style="stop-color:#F7F4B4"/>
	<stop  offset="0.2375" style="stop-color:#F3EE7A"/>
	<stop  offset="0.3329" style="stop-color:#F1EB4A"/>
	<stop  offset="0.3806" style="stop-color:#F0E934"/>
	<stop  offset="0.9749" style="stop-color:#F0E934"/>
</linearGradient>
<polygon style="fill:url(#SVGID_00000101068555321815121930000011281427569659628441_);" points="414.6,165.51 416.95,167.66 
	396.23,210.98 384.77,203.84 "/>
<path d="M410.1,244.7l103.12-1.99l-6.53,18.95h8.93c0,0-17.04,91.73-16.77,89.95c0.27-1.79-7.54,49.41-6.45,53.11
	c-2.69-0.22-18.75,0.9-35.47,2.69c-14.54,1.55-28.4,0.66-45.41,10.14l-0.16,0.09l-0.16-0.09c-17.01-9.48-30.87-8.59-45.41-10.14
	c-16.72-1.78-32.78-2.9-35.47-2.69c1.09-3.7-6.72-54.9-6.45-53.11c0.27,1.79-16.77-89.95-16.77-89.95h8.93l-6.53-18.95l103.12,1.99"
	/>
<path class="st13" d="M411.48,417.96c0,0-10.58-10.68-25.44-16.18c-9.82-3.64-18.16-6.29-29.29-7.64
	c-5.36-0.65-11.75-0.43-18.71-0.5c-2.14-16.5-25.43-181.21-25.43-181.21l97.63,27.36c0,0,1.97,0.18,2.61,0l97.63-27.36
	c0,0-23.29,164.71-25.43,181.21c-6.97,0.07-13.35-0.15-18.71,0.5c-11.13,1.35-19.46,4.01-29.29,7.64
	c-14.86,5.5-25.44,16.18-25.44,16.18"/>
<path class="st14" d="M411.71,417.96"/>
<linearGradient id="SVGID_00000085246301711614188320000007940668262061024444_" gradientUnits="userSpaceOnUse" x1="411.0714" y1="418.257" x2="411.0714" y2="218.8579">
	<stop  offset="0.0531" style="stop-color:#E4EDF8"/>
	<stop  offset="0.7486" style="stop-color:#B3DCF5"/>
	<stop  offset="1" style="stop-color:#61B6E6"/>
</linearGradient>
<path style="fill:url(#SVGID_00000085246301711614188320000007940668262061024444_);" d="M410.64,415.02
	c0.01,1.49,0.01,2.59,0.01,3.24c0.64-9.63-10.38-19.42-15.75-22.69c-14.5-8.35-45.63-10.81-53.46-10.81
	c-1.71-42.81-17.46-146.2-18.32-152.65c-0.86-6.45-2.36-9.98-3.64-13.25c34.29,1.93,52.5,8.13,64.97,11.99
	c8.85,2.73,18.17,9.67,22.85,13.47c0.67,0.54,1.24,1.02,1.7,1.42c0,0,0.01,0.22,0.01,0.64c0,0,2.43,2.06,4.15,0
	c0.27-0.32,1.05-1.52,1.72-2.06c4.67-3.8,14-10.74,22.85-13.47c12.47-3.85,30.68-10.06,64.97-11.99c-1.29,3.27-2.79,6.8-3.64,13.25
	c-0.86,6.45-16.61,109.84-18.32,152.65c-7.83,0-38.96,2.46-53.46,10.81c-5.37,3.27-16.39,13.06-15.75,22.69c0-0.65,0-1.74,0.01-3.24
	"/>
<g>
	<defs>
		<rect id="SVGID_00000018940704976069712060000010806732307288358021_" x="376.44" y="379.35" width="58.28" height="11.99"/>
	</defs>
	<clipPath id="SVGID_00000162341360578226357160000016291592936722279554_">
		<use xlink:href="#SVGID_00000018940704976069712060000010806732307288358021_"  style="overflow:visible;"/>
	</clipPath>
	
		<path style="clip-path:url(#SVGID_00000162341360578226357160000016291592936722279554_);fill:none;stroke:#2388C6;stroke-width:3;stroke-miterlimit:10;" d="
		M463.98,382.56c0,0-6.86-4.46-16.25,0c-9.39,4.46-14.45,5.86-25.28,1.81c-10.84-4.04-14.81-4.46-28.65,0.84
		c-5.78,1.56-13.97,0.69-20.11-1.54c-6.14-2.23-10.84-3.91-19.38,0"/>
</g>
<path class="st17" d="M468.39,363.14c0,0-7.41-4.82-17.56,0c-10.15,4.82-15.61,6.33-27.32,1.96c-11.71-4.37-16-4.82-30.96,0.9
	c-6.24,1.68-15.09,0.75-21.72-1.66c-6.63-2.41-11.71-4.22-20.94,0"/>
<path class="st17" d="M468.39,369.47c0,0-7.41-4.82-17.56,0c-10.15,4.82-15.61,6.33-27.32,1.96c-11.71-4.37-16-4.82-30.96,0.9
	c-6.24,1.68-15.09,0.75-21.72-1.66c-6.63-2.41-11.71-4.22-20.94,0"/>
<path class="st17" d="M468.39,375.79c0,0-7.41-4.82-17.56,0c-10.15,4.82-15.61,6.33-27.32,1.96c-11.71-4.37-16-4.82-30.96,0.9
	c-6.24,1.68-15.09,0.75-21.72-1.66c-6.63-2.41-11.71-4.22-20.94,0"/>
<path class="st18" d="M411.87,246.4c0,0,13.42-12.2,25.89-16.05c12.47-3.85,30.68-10.06,64.97-11.99c-1.29,3.27-2.79,6.8-3.64,13.25
	c-0.86,6.45-16.61,109.84-18.32,152.65c-7.83,0-38.96,2.46-53.46,10.81c-5.37,3.27-16.39,13.06-15.75,22.69
	c-0.03-12.42-1.71-17.48,4.61-22.8c4.67-3.94,11.76-9.35,29.93-13.7c8.08-1.94,18.35-3.05,31.57-4.78
	c0.64-8.56,1.27-22.77,1.39-24.97c0.11-1.84,1.65-20.2,4.18-42.06c3.74-32.34,9.7-72.81,12-81.88c-0.07-0.64,0.21-1.71-6.29-1.86
	c-2.98-0.07-11.44,0.02-21,1.64c-11.27,1.91-24.12,5.64-32.05,9.42C421.23,243.76,411.87,246.4,411.87,246.4z"/>
<path class="st18" d="M410.38,246.4c0,0-13.42-12.2-25.89-16.05c-12.47-3.85-30.68-10.06-64.97-11.99c1.29,3.27,2.79,6.8,3.64,13.25
	c0.86,6.45,16.61,109.84,18.32,152.65c7.83,0,38.96,2.46,53.46,10.81c5.37,3.27,17.21,13.06,16.56,22.69
	c0.03-12.42,0.89-17.48-5.42-22.8c-4.67-3.94-11.76-9.35-29.93-13.7c-8.08-1.94-18.35-3.05-31.57-4.78
	c-0.64-8.56-1.27-22.77-1.39-24.97c-0.11-1.84-1.65-20.2-4.18-42.06c-3.74-32.34-9.7-72.81-12-81.88c0.07-0.64-0.21-1.71,6.29-1.86
	c2.98-0.07,11.44,0.02,21,1.64c11.27,1.91,24.12,5.64,32.05,9.42C401.02,243.76,410.38,246.4,410.38,246.4z"/>
<path class="st19" d="M411.55,417.76"/>
<path class="st19" d="M411.43,417.76"/>
<line class="st19" x1="411.44" y1="417.76" x2="411.32" y2="417.76"/>
<polygon class="st20" points="393,200.21 434.46,200.21 434.04,181.39 393.43,181.39 "/>
<rect x="378.43" y="337.14" class="st20" width="67.86" height="18.31"/>
<polygon class="st20" points="387.21,336.71 436.93,336.71 435.44,202.93 392.31,202.93 "/>
<g>
	<polygon class="st21" points="419.04,249.14 424.07,249.14 424.07,239.79 422.28,239.79 419.04,239.79 	"/>
	<line class="st21" x1="422.39" y1="249.27" x2="422.39" y2="239.79"/>
</g>
<g>
	<polygon class="st21" points="418.32,221.63 423.36,221.63 423.36,212.43 421.57,212.43 418.32,212.43 	"/>
	<line class="st21" x1="421.68" y1="221.75" x2="421.68" y2="212.43"/>
</g>
<g>
	<polygon class="st21" points="419.04,280.39 424.07,280.39 424.07,271.26 422.28,271.26 419.04,271.26 	"/>
	<line class="st21" x1="422.39" y1="280.51" x2="422.39" y2="271.26"/>
</g>
<g>
	<polygon class="st21" points="419.56,311.8 424.6,311.8 424.6,302.67 422.81,302.67 419.56,302.67 	"/>
	<line class="st21" x1="422.92" y1="311.92" x2="422.92" y2="302.67"/>
</g>
<g>
	<polygon class="st21" points="418.32,192.79 423.36,192.79 423.36,183.66 421.57,183.66 418.32,183.66 	"/>
	<line class="st21" x1="421.68" y1="192.91" x2="421.68" y2="183.66"/>
</g>
<rect x="396.86" y="172.55" class="st22" width="34.23" height="4.23"/>
<rect x="401.89" y="162.55" class="st22" width="23.84" height="10"/>
<rect x="400.23" y="160.53" class="st23" width="27.11" height="1.42"/>
<path class="st24" d="M406.77,149.89"/>
<rect x="393.37" y="179.32" class="st23" width="40.72" height="1.64"/>
<polygon class="st23" points="393.37,179.32 434.09,179.32 435.21,177.68 399.43,177.68 392.24,177.68 "/>
<line class="st23" x1="399.57" y1="180.96" x2="399.57" y2="177.68"/>
<line class="st23" x1="428.12" y1="180.96" x2="428.12" y2="177.68"/>
<line class="st23" x1="413.94" y1="180.96" x2="413.94" y2="177.68"/>
<rect x="387.93" y="200.21" class="st23" width="50.03" height="2.25"/>
<line class="st25" x1="433.43" y1="202.46" x2="433.43" y2="199.93"/>
<line class="st25" x1="416.43" y1="202.46" x2="416.43" y2="199.93"/>
<line class="st25" x1="411.11" y1="202.46" x2="411.11" y2="199.93"/>
<line class="st23" x1="429.57" y1="337" x2="427" y2="203.2"/>
<path class="st26" d="M412.94,202.93"/>
<line class="st25" x1="396.96" y1="202.46" x2="396.96" y2="199.93"/>
<line class="st25" x1="389.28" y1="202.46" x2="389.28" y2="199.93"/>
<line class="st25" x1="427.21" y1="181.91" x2="427.21" y2="199.7"/>
<line class="st25" x1="412.36" y1="336.48" x2="413.73" y2="203.2"/>
<polygon points="398.46,260.04 390.48,260.04 392.34,203.2 400.09,203.2 "/>
<polygon points="412.29,336.48 394.39,336.48 396.96,260.04 413.04,260.04 "/>
<polygon points="428.11,260.04 436.09,260.04 435.43,203.2 427.21,203.2 "/>
<polygon points="413.73,199.75 399.57,199.75 400.29,181.91 413.73,181.91 "/>
<path class="st23" d="M410.75,155.68h6.07v-3.56l-0.58-0.2c-1.51-0.53-3.4-0.53-4.91,0l-0.58,0.2V155.68z"/>
<path class="st23" d="M414.37,159.88l-11.98,0.03c1.42-2.51,6.18-4.23,11.39-4.23c5.22,0,9.98,1.73,11.39,4.24L414.37,159.88z"/>
<circle class="st27" cx="413.73" cy="167.55" r="4.32"/>
<rect x="378.88" y="337.14" class="st13" width="66.88" height="19.02"/>
<line class="st23" x1="388.29" y1="336.45" x2="388.29" y2="355.23"/>
<line class="st25" x1="412.29" y1="336.48" x2="412.29" y2="352.33"/>
<line class="st23" x1="435.93" y1="336.48" x2="435.93" y2="355.26"/>
<path class="st17" d="M468.39,357.81c0,0-7.41-4.82-17.56,0c-10.15,4.82-15.61,6.33-27.32,1.96c-11.71-4.37-16-4.82-30.96,0.9
	c-6.24,1.68-15.09,0.75-21.72-1.66c-6.63-2.41-11.71-4.22-20.94,0"/>
<path class="st17" d="M468.39,352.48c0,0-7.41-4.82-17.56,0c-10.15,4.82-15.61,6.33-27.32,1.96c-11.71-4.37-16-4.82-30.96,0.9
	c-6.24,1.68-15.09,0.75-21.72-1.66c-6.63-2.41-11.71-4.22-20.94,0"/>
<linearGradient id="SVGID_00000037693421853910719850000007408053182401147553_" gradientUnits="userSpaceOnUse" x1="294.8571" y1="435.3181" x2="532.7857" y2="435.3181">
	<stop  offset="0.0721" style="stop-color:#F8F3A4"/>
	<stop  offset="0.1369" style="stop-color:#FFFFFF"/>
	<stop  offset="0.2234" style="stop-color:#F0E934"/>
	<stop  offset="0.7998" style="stop-color:#F0E934"/>
	<stop  offset="0.879" style="stop-color:#FFFEF7"/>
	<stop  offset="0.9799" style="stop-color:#F6F5BB"/>
</linearGradient>
<path style="fill:url(#SVGID_00000037693421853910719850000007408053182401147553_);stroke:#2388C6;stroke-miterlimit:10;" d="
	M413.7,469.72l0.16,0c13.5,0.29,30.31-2.73,30.31-2.73c13.98-2.32,22.62-5.41,22.62-5.41c5.89-1.39,38.57-15.43,43.71-18.21
	c5.14-2.79,10.07-0.64,14.36,1.29c4.29,1.93,7.93,7.07,7.93,7.07s-7.29-14.79-8.57-17.57s-1.71-7.07-1.71-10.29
	s1.71-12.21,1.71-16.71c-2.57-12-23.14-3-23.14-3c-23.9,12.77-43.12,19.09-57.32,22.15c0,0-11.4,3.14-29.9,3.14h-0.07
	c-18.5,0-29.9-3.14-29.9-3.14c-14.2-3.05-33.42-9.38-57.32-22.15c0,0-20.57-9-23.14,3c0,4.5,1.71,13.5,1.71,16.71
	s-0.43,7.5-1.71,10.29c-1.29,2.79-8.57,17.57-8.57,17.57s3.64-5.14,7.93-7.07c4.29-1.93,9.21-4.07,14.36-1.29
	s37.82,16.82,43.71,18.21c0,0,8.64,3.09,22.62,5.41c0,0,16.81,3.02,30.31,2.73"/>
<linearGradient id="SVGID_00000109730243563143810330000009120526336346772135_" gradientUnits="userSpaceOnUse" x1="294.1645" y1="455.9207" x2="319.9734" y2="455.9207">
	<stop  offset="0.0721" style="stop-color:#F8F3A4"/>
	<stop  offset="0.1648" style="stop-color:#FFFFFF"/>
	<stop  offset="0.6601" style="stop-color:#F0E934"/>
	<stop  offset="0.9799" style="stop-color:#F6F5BB"/>
</linearGradient>
<path style="fill:url(#SVGID_00000109730243563143810330000009120526336346772135_);stroke:#2388C6;stroke-miterlimit:10;" d="
	M295.13,451.16c0,0-0.38,0.77-0.7,2.59c-0.32,1.82-1.29,8.14,4.5,13.07c2.57,1.82,6.21,3.57,10.29,2.91c1.93,0,6.64-2.05,7.71-5.38
	c1.29-6.86,3.04-19.61,3.04-19.61s-6.09-3.87-10.51-2.48c-4.42,1.39-7.01,2.02-9.21,3.9S296.48,449.1,295.13,451.16z"/>
<linearGradient id="SVGID_00000068655318167838922780000017586672683296967099_" gradientUnits="userSpaceOnUse" x1="301.0533" y1="451.8011" x2="319.9734" y2="451.8011">
	<stop  offset="0.0721" style="stop-color:#F8F3A4"/>
	<stop  offset="0.1537" style="stop-color:#FFFFFF"/>
	<stop  offset="0.7998" style="stop-color:#F0E934"/>
	<stop  offset="0.9799" style="stop-color:#F6F5BB"/>
</linearGradient>
<path style="fill:url(#SVGID_00000068655318167838922780000017586672683296967099_);stroke:#2388C6;stroke-miterlimit:10;" d="
	M319.97,444.75c0,0-6.88-4.57-12.9-1.85l-6,17.23c-0.07,0.2,0.18,0.36,0.33,0.21c1.86-1.99,7.24-7.56,9.42-7.94
	c0.6-0.11,2.99-0.95,5.36,0.61c2.7,1.73,1.25,8.56,1.25,8.56L319.97,444.75z"/>
<linearGradient id="SVGID_00000150814194516568058170000006080178409089887164_" gradientUnits="userSpaceOnUse" x1="80.7334" y1="455.9207" x2="106.5423" y2="455.9207" gradientTransform="matrix(-1 0 0 1 614.1379 0)">
	<stop  offset="0.0721" style="stop-color:#F8F3A4"/>
	<stop  offset="0.1648" style="stop-color:#FFFFFF"/>
	<stop  offset="0.6601" style="stop-color:#F0E934"/>
	<stop  offset="0.9799" style="stop-color:#F6F5BB"/>
</linearGradient>
<path style="fill:url(#SVGID_00000150814194516568058170000006080178409089887164_);stroke:#2388C6;stroke-miterlimit:10;" d="
	M532.44,451.16c0,0,0.38,0.77,0.7,2.59c0.32,1.82,1.29,8.14-4.5,13.07c-2.57,1.82-6.21,3.57-10.29,2.91c-1.93,0-6.64-2.05-7.71-5.38
	c-1.29-6.86-3.04-19.61-3.04-19.61s6.09-3.87,10.51-2.48c4.42,1.39,7.01,2.02,9.21,3.9C529.51,448.05,531.09,449.1,532.44,451.16z"
	/>
<linearGradient id="SVGID_00000119838216701899729770000012610282894602828724_" gradientUnits="userSpaceOnUse" x1="87.6223" y1="451.8011" x2="106.5423" y2="451.8011" gradientTransform="matrix(-1 0 0 1 614.1379 0)">
	<stop  offset="0.0721" style="stop-color:#F8F3A4"/>
	<stop  offset="0.1537" style="stop-color:#FFFFFF"/>
	<stop  offset="0.7998" style="stop-color:#F0E934"/>
	<stop  offset="0.9799" style="stop-color:#F6F5BB"/>
</linearGradient>
<path style="fill:url(#SVGID_00000119838216701899729770000012610282894602828724_);stroke:#2388C6;stroke-miterlimit:10;" d="
	M507.6,444.75c0,0,6.88-4.57,12.9-1.85l6,17.23c0.07,0.2-0.18,0.36-0.33,0.21c-1.86-1.99-7.24-7.56-9.42-7.94
	c-0.6-0.11-2.99-0.95-5.36,0.61c-2.7,1.73-1.25,8.56-1.25,8.56L507.6,444.75z"/>
<g>
	<g>
		<path class="st33" d="M298.79,443.71c0,0,0.27-0.25,0.77-0.64"/>
		<path class="st34" d="M301.2,441.91c2.82-1.84,7.78-4.23,12.95-2.84c7.61,2.06,51.36,27.42,94.29,27.93h5.36h5
			c42.92-0.51,86.67-25.87,94.29-27.93c5.72-1.55,11.18,1.55,13.77,3.4"/>
		<path class="st33" d="M527.66,443.07c0.5,0.39,0.77,0.64,0.77,0.64"/>
	</g>
</g>
<g>
	<g>
		<path class="st33" d="M523.73,408.58c-0.13-0.32-0.28-0.62-0.44-0.9"/>
		<path class="st35" d="M522.05,406.13c-5.99-5.55-20.98,1.01-20.98,1.01c-23.9,12.77-43.12,19.09-57.32,22.15
			c0,0-11.4,3.14-29.9,3.14h-0.07c-18.5,0-29.9-3.14-29.9-3.14c-14.2-3.05-33.42-9.38-57.32-22.15c0,0-17.62-7.71-22.28,0.65"/>
		<path class="st33" d="M303.86,408.69c-0.12,0.3-0.22,0.62-0.31,0.95"/>
	</g>
</g>
<g>
	<g>
		<path d="M313.97,422.56c0-4.9,0-7.34,0-12.24c0.45,0.34,0.68,0.51,1.13,0.84c1.37,1.01,2.07,1.51,3.46,2.48
			c1.27,0.89,2.24,1.87,2.9,2.96c0.66,1.09,0.99,2.26,0.99,3.51c0,1.33-0.33,2.12-0.99,2.36c-0.66,0.24-1.64-0.07-2.9-0.96
			c-0.45-0.32-0.87-0.62-1.25-0.89c-0.38-0.27-0.74-0.52-1.06-0.74c0,1.74,0,2.61,0,4.35c-0.46-0.33-0.68-0.5-1.14-0.83
			C314.66,423.07,314.43,422.9,313.97,422.56z M316.26,417.77c0.77,0.55,1.15,0.83,1.92,1.37c1.29,0.91,1.95,0.71,1.95-0.56
			c0-1.17-0.65-2.19-1.95-3.1c-0.77-0.54-1.16-0.82-1.92-1.37C316.26,415.57,316.26,416.3,316.26,417.77z"/>
		<path d="M329.26,433.1c-1.7-1-3.03-2.4-4.01-4.17c-0.98-1.76-1.47-3.63-1.47-5.6c0-2,0.49-3.27,1.47-3.83
			c0.98-0.56,2.32-0.32,4.01,0.68c1.7,1,3.06,2.35,4.07,4.08c1.01,1.73,1.52,3.59,1.52,5.59c0,1.97-0.51,3.25-1.52,3.83
			C332.31,434.28,330.95,434.09,329.26,433.1z M329.26,430.92c0.98,0.58,1.75,0.64,2.3,0.21c0.56-0.43,0.84-1.31,0.84-2.63
			c0-1.36-0.28-2.58-0.84-3.66c-0.56-1.08-1.32-1.9-2.3-2.48s-1.75-0.66-2.3-0.23c-0.55,0.43-0.82,1.33-0.82,2.68
			c0,1.32,0.27,2.53,0.82,3.62C327.51,429.5,328.27,430.34,329.26,430.92z"/>
		<path d="M336.81,436.94c0-4.9,0-7.34,0-12.24c0.49,0.25,0.74,0.38,1.23,0.63c1.89,0.96,2.84,1.43,4.75,2.32
			c1.13,0.53,2.06,1.26,2.77,2.21c0.7,0.93,1.06,1.91,1.06,2.94c0,1.17-0.39,1.86-1.18,2.06c-0.11,0.02-0.22,0.04-0.33,0.05
			c-0.12,0.01-0.24,0.01-0.37,0c0.14,0.12,0.28,0.25,0.4,0.38c0.68,0.72,1.04,1.58,1.07,2.57c0.02,0.81,0.03,1.22,0.06,2.03
			c0.01,0.2,0.02,0.38,0.04,0.53s0.05,0.28,0.08,0.38c0.07,0.2,0.21,0.39,0.41,0.57c0,0.13,0,0.2,0,0.33
			c-1.11-0.49-1.67-0.74-2.77-1.24c-0.03-0.08-0.06-0.19-0.09-0.34c-0.03-0.15-0.06-0.34-0.08-0.55c-0.03-0.22-0.04-0.45-0.05-0.68
			c-0.01-0.23-0.02-0.47-0.02-0.71c-0.01-0.46-0.01-0.68-0.02-1.14c-0.01-0.28-0.05-0.53-0.13-0.76c-0.08-0.23-0.2-0.44-0.36-0.64
			s-0.36-0.38-0.61-0.55c-0.25-0.17-0.55-0.34-0.91-0.51c-0.99-0.47-1.49-0.72-2.47-1.21c0,1.93,0,2.9,0,4.83
			c-0.49-0.25-0.74-0.37-1.23-0.62C337.55,437.33,337.3,437.2,336.81,436.94z M339.27,431.31c1.15,0.57,1.73,0.85,2.88,1.4
			c1.29,0.61,1.94,0.36,1.94-0.72c0-1.08-0.62-1.9-1.84-2.48c-1.19-0.57-1.79-0.86-2.98-1.45
			C339.27,429.36,339.27,430.01,339.27,431.31z"/>
		<path d="M351.46,443.67c0-4.03,0-6.04,0-10.07c-1.48-0.59-2.21-0.9-3.67-1.53c0-0.43,0-0.65,0-1.08c0-0.44,0-0.65,0-1.09
			c3.93,1.69,5.92,2.47,9.94,3.89c0,0.43,0,0.65,0,1.08c0,0.44,0,0.65,0,1.09c-1.49-0.53-2.23-0.8-3.71-1.36c0,4.03,0,6.04,0,10.07
			c-0.51-0.2-0.77-0.3-1.28-0.5C352.22,443.98,351.96,443.88,351.46,443.67z"/>
		<path d="M370.26,441.36c-0.02-0.3-0.1-0.58-0.24-0.86c-0.14-0.27-0.32-0.52-0.55-0.75c-0.23-0.22-0.5-0.43-0.82-0.6
			c-0.32-0.18-0.67-0.32-1.04-0.43c-0.67-0.19-1.19-0.2-1.57-0.03c-0.37,0.17-0.56,0.52-0.56,1.04c0,0.37,0.2,0.71,0.59,1.03
			c0.19,0.16,0.49,0.35,0.89,0.59c0.41,0.23,0.93,0.51,1.56,0.83c1.82,0.9,3.05,1.67,3.68,2.36c0.61,0.67,0.93,1.58,0.93,2.72
			c0,1.15-0.47,1.95-1.4,2.38c-0.93,0.44-2.19,0.44-3.77,0c-0.8-0.22-1.51-0.52-2.13-0.89c-0.62-0.37-1.15-0.79-1.58-1.28
			c-0.43-0.49-0.77-1.02-1.01-1.61c-0.24-0.59-0.38-1.22-0.4-1.89c1,0.32,1.5,0.47,2.5,0.77c0.03,0.67,0.27,1.24,0.72,1.72
			c0.45,0.48,1.09,0.84,1.9,1.07c0.84,0.24,1.5,0.28,1.97,0.14s0.7-0.44,0.7-0.91c0-0.46-0.17-0.84-0.51-1.15
			c-0.16-0.15-0.42-0.33-0.77-0.54c-0.35-0.21-0.8-0.45-1.35-0.72c-1.98-0.99-3.3-1.86-3.98-2.58c-0.66-0.7-0.99-1.59-0.99-2.65
			c0-1.18,0.44-1.98,1.32-2.41c0.88-0.43,2.07-0.42,3.57,0c1.4,0.4,2.55,1.07,3.43,2.02c0.88,0.94,1.38,2.04,1.48,3.29
			C371.79,441.76,371.28,441.63,370.26,441.36z"/>
		<path d="M374.15,450.91c1.79-4.47,2.68-6.71,4.48-11.23c0.62,0.13,0.92,0.19,1.54,0.32c0.62,0.12,0.93,0.18,1.54,0.3
			c1.8,5.24,2.71,7.85,4.52,13.04c-0.57-0.09-0.85-0.14-1.42-0.24c-0.57-0.1-0.85-0.15-1.42-0.25c-0.34-1.06-0.51-1.59-0.86-2.64
			c-1.93-0.36-2.9-0.55-4.82-0.97c-0.34,0.92-0.51,1.38-0.84,2.3c-0.54-0.12-0.81-0.18-1.36-0.31
			C374.97,451.1,374.7,451.04,374.15,450.91z M380.13,442.71c-0.67,1.83-1.01,2.75-1.68,4.57c1.35,0.29,2.03,0.42,3.38,0.68
			C381.15,445.87,380.81,444.82,380.13,442.71z"/>
		<path d="M387.74,453.57c0-4.9,0-7.34,0-12.24c0.53,0.08,0.8,0.12,1.33,0.2c0.54,0.08,0.81,0.12,1.34,0.19c0,4.9,0,7.34,0,12.24
			c-0.53-0.07-0.8-0.11-1.33-0.19C388.54,453.69,388.27,453.65,387.74,453.57z"/>
		<path d="M392.92,454.28c0-4.9,0-7.34,0-12.24c0.53,0.06,0.8,0.1,1.34,0.16c1.66,0.19,2.5,0.27,4.17,0.41
			c1.77,0.15,3.12,0.74,4.04,1.78c0.92,1.05,1.38,2.51,1.38,4.41c0,2.1-0.48,3.67-1.44,4.7c-0.96,1.03-2.36,1.48-4.21,1.32
			c-1.58-0.14-2.37-0.22-3.94-0.39C393.72,454.37,393.45,454.34,392.92,454.28z M395.6,452.47c0.91,0.09,1.36,0.14,2.26,0.22
			c2.19,0.2,3.29-1.14,3.29-3.95c0-2.55-1.02-3.88-3.06-4.06c-0.99-0.09-1.49-0.14-2.49-0.24
			C395.6,447.66,395.6,449.26,395.6,452.47z"/>
		<path d="M420.63,450.65c0,1.75-0.41,3.04-1.22,3.84c-0.82,0.81-2.14,1.24-3.99,1.28c-1.77,0.03-3.08-0.38-3.94-1.19
			c-0.85-0.81-1.28-2.07-1.29-3.75c0-3.05,0-4.58,0-7.63c0.54,0.01,0.81,0.01,1.34,0.01c0.54,0,0.81,0,1.35,0c0,3.09,0,4.63,0,7.71
			c0,1.75,0.84,2.64,2.53,2.61c0.9-0.02,1.55-0.23,1.93-0.65c0.38-0.42,0.58-1.1,0.58-2.05c0-3.09,0-4.63,0-7.71
			c0.54-0.02,0.81-0.03,1.35-0.05c0.54-0.02,0.81-0.03,1.35-0.06C420.63,446.07,420.63,447.6,420.63,450.65z"/>
		<path d="M425.65,454.94c-0.5,0.04-0.75,0.06-1.25,0.09c-0.5,0.04-0.76,0.05-1.26,0.09c0-4.9,0-7.34,0-12.24
			c0.57-0.04,0.85-0.06,1.41-0.1c0.56-0.04,0.85-0.06,1.41-0.11c2.07,3.26,3.1,4.88,5.16,8.08c0-3.43,0-5.15,0-8.58
			c0.5-0.06,0.75-0.09,1.26-0.15c0.5-0.06,0.75-0.09,1.26-0.16c0,4.9,0,7.34,0,12.24c-0.53,0.07-0.8,0.1-1.34,0.17
			c-0.53,0.06-0.8,0.1-1.34,0.16c-2.12-3.29-3.19-4.95-5.31-8.3C425.65,449.65,425.65,451.41,425.65,454.94z"/>
		<path d="M436,453.78c0-4.9,0-7.34,0-12.24c0.53-0.08,0.8-0.12,1.33-0.2c0.54-0.08,0.8-0.12,1.34-0.21c0,4.9,0,7.34,0,12.24
			c-0.53,0.09-0.8,0.13-1.33,0.21C436.8,453.66,436.54,453.7,436,453.78z"/>
		<path d="M440.15,440.89c0.57-0.1,0.85-0.15,1.42-0.25c0.57-0.1,0.85-0.15,1.42-0.26c1.12,3.53,1.68,5.29,2.8,8.8
			c1.11-3.97,1.67-5.96,2.78-9.95c0.54-0.12,0.81-0.18,1.36-0.31c0.55-0.13,0.82-0.19,1.37-0.32c-1.71,5.31-2.57,7.95-4.29,13.22
			c-0.5,0.11-0.76,0.16-1.26,0.26c-0.5,0.1-0.76,0.15-1.26,0.25C442.74,447.78,441.88,445.49,440.15,440.89z"/>
		<path d="M452.96,450.42c0-4.9,0-7.34,0-12.24c3.71-0.94,5.56-1.47,9.22-2.62c0,0.43,0,0.65,0,1.08c0,0.44,0,0.65,0,1.09
			c-2.62,0.83-3.94,1.22-6.59,1.94c0,1.04,0,1.56,0,2.6c2.46-0.67,3.68-1.02,6.11-1.79c0,0.42,0,0.63,0,1.04c0,0.42,0,0.64,0,1.06
			c-2.43,0.76-3.66,1.12-6.11,1.79c0,1.27,0,1.91,0,3.19c2.77-0.75,4.14-1.16,6.88-2.03c0,0.43,0,0.65,0,1.08c0,0.44,0,0.65,0,1.09
			C458.69,448.91,456.78,449.45,452.96,450.42z"/>
		<path d="M464.58,447.02c0-4.9,0-7.34,0-12.24c0.52-0.17,0.77-0.26,1.29-0.44c1.98-0.68,2.96-1.03,4.92-1.78
			c1.16-0.44,2.1-0.5,2.82-0.16c0.71,0.33,1.07,1.01,1.07,2.04c0,1.17-0.39,2.2-1.19,3.06c-0.11,0.11-0.22,0.22-0.34,0.33
			c-0.12,0.11-0.24,0.21-0.38,0.32c0.15,0,0.28,0.01,0.41,0.04c0.69,0.14,1.05,0.69,1.09,1.66c0.02,0.79,0.03,1.19,0.06,1.99
			c0.01,0.2,0.02,0.36,0.04,0.49c0.02,0.13,0.05,0.24,0.08,0.31c0.07,0.14,0.21,0.21,0.42,0.22c0,0.13,0,0.2,0,0.33
			c-1.12,0.46-1.68,0.68-2.81,1.12c-0.03-0.05-0.06-0.14-0.1-0.26s-0.06-0.29-0.09-0.48c-0.03-0.2-0.04-0.41-0.05-0.64
			s-0.02-0.45-0.02-0.69c-0.01-0.45-0.01-0.67-0.02-1.12c-0.01-0.27-0.05-0.49-0.13-0.65c-0.08-0.16-0.2-0.27-0.36-0.33
			c-0.16-0.06-0.37-0.07-0.63-0.03s-0.57,0.13-0.93,0.27c-1.02,0.38-1.53,0.56-2.56,0.93c0,1.93,0,2.9,0,4.83
			c-0.51,0.18-0.77,0.27-1.28,0.45C465.35,446.76,465.09,446.84,464.58,447.02z M467.16,439.24c1.2-0.42,1.79-0.64,2.98-1.08
			c1.32-0.5,1.98-1.3,1.98-2.38c0-1.08-0.63-1.37-1.89-0.9c-1.23,0.46-1.84,0.68-3.08,1.12
			C467.16,437.3,467.16,437.94,467.16,439.24z"/>
		<path d="M483.42,430.83c-0.02-0.28-0.1-0.51-0.23-0.69c-0.13-0.17-0.3-0.29-0.52-0.35c-0.22-0.06-0.48-0.06-0.78-0.01
			c-0.3,0.05-0.64,0.16-1,0.33c-0.64,0.29-1.15,0.66-1.5,1.11c-0.36,0.44-0.54,0.92-0.54,1.44c0,0.37,0.19,0.57,0.56,0.6
			c0.18,0.02,0.47,0,0.86-0.06s0.89-0.16,1.49-0.3c1.74-0.42,2.9-0.53,3.49-0.29c0.58,0.23,0.87,0.91,0.87,2.05
			c0,1.15-0.44,2.28-1.32,3.39c-0.88,1.11-2.07,2.02-3.58,2.72c-0.76,0.35-1.44,0.57-2.04,0.65c-0.6,0.09-1.11,0.04-1.53-0.13
			s-0.75-0.47-0.98-0.88c-0.24-0.41-0.37-0.94-0.39-1.59c0.97-0.41,1.46-0.62,2.43-1.05c0.03,0.65,0.26,1.05,0.69,1.2
			c0.44,0.15,1.05,0.05,1.83-0.31c0.81-0.37,1.43-0.8,1.88-1.28c0.44-0.48,0.67-0.95,0.67-1.42c0-0.46-0.16-0.72-0.49-0.78
			c-0.15-0.03-0.4-0.03-0.73,0.02c-0.33,0.05-0.76,0.13-1.29,0.25c-1.89,0.45-3.18,0.53-3.83,0.3c-0.64-0.22-0.96-0.87-0.96-1.92
			c0-1.18,0.43-2.3,1.28-3.37c0.85-1.07,2-1.93,3.43-2.59c1.34-0.62,2.43-0.76,3.26-0.45c0.83,0.31,1.3,1.05,1.39,2.23
			C484.87,430.13,484.39,430.37,483.42,430.83z"/>
		<path d="M487.8,437.22c0-4.9,0-7.34,0-12.24c0.49-0.25,0.73-0.38,1.22-0.64c0.49-0.26,0.74-0.39,1.23-0.65c0,4.9,0,7.34,0,12.24
			c-0.49,0.26-0.73,0.39-1.22,0.65C488.54,436.84,488.3,436.97,487.8,437.22z"/>
		<path d="M495.04,433.26c0-4.03,0-6.04,0-10.07c-1.4,0.81-2.1,1.21-3.51,1.98c0-0.43,0-0.65,0-1.08c0-0.44,0-0.65,0-1.09
			c3.79-2.08,5.67-3.19,9.35-5.54c0,0.43,0,0.65,0,1.08c0,0.44,0,0.65,0,1.09c-1.37,0.87-2.05,1.3-3.44,2.13c0,4.03,0,6.04,0,10.07
			c-0.48,0.29-0.72,0.43-1.2,0.72C495.76,432.84,495.52,432.98,495.04,433.26z"/>
		<path d="M505.23,422.22c-1.55-1.99-2.34-3-3.91-5.04c0.56-0.36,0.84-0.54,1.39-0.9c0.56-0.37,0.84-0.56,1.4-0.93
			c0.93,1.5,1.39,2.24,2.32,3.73c0.86-2.73,1.29-4.09,2.15-6.84c0.52-0.38,0.78-0.57,1.3-0.95c0.52-0.38,0.77-0.57,1.29-0.96
			c-1.44,4.12-2.16,6.16-3.62,10.23c0,1.86,0,2.79,0,4.65c-0.46,0.33-0.69,0.49-1.15,0.81c-0.46,0.32-0.7,0.48-1.16,0.8
			C505.23,424.98,505.23,424.06,505.23,422.22z"/>
	</g>
</g>
<path d="M496.77,473.9c-0.42-0.44-1.5-0.7-1.79-0.38s-0.32,1.5-0.32,1.5s0,0-1.31-2.52s-0.54-3.29-0.54-3.29
	c1.82-2.94,6.41,2.36,7.56,3.45c0.89,0.84,3.52,1.86,4.65,2.27c0.34,0.12,0.63,0.35,0.82,0.66l1.01,1.57c0,0,1.31,2.07-1.4,3.54
	c-2.6,1.41-22.52,10.26-24.18,10.99c-0.06,0.03-0.13,0-0.16-0.06l-11.42-26.87c-0.04-0.09,0.03-0.18,0.13-0.16
	c0.74,0.16,3.13,0.77,3.65,1.87c0.58,1.25,7.76,17.71,8.41,19.2c0.03,0.06,0.1,0.08,0.16,0.05l17.8-8.48l1.2-0.57
	C501.05,476.68,498.34,475.53,496.77,473.9z"/>
<ellipse cx="505.58" cy="488.35" rx="1.59" ry="1.77"/>
<ellipse transform="matrix(0.9865 -0.1638 0.1638 0.9865 -72.419 78.5557)" cx="440.2" cy="478.47" rx="1.49" ry="2.16"/>
<ellipse transform="matrix(0.9865 -0.1638 0.1638 0.9865 -72.5556 77.7969)" cx="435.53" cy="478.92" rx="1.49" ry="2.16"/>
<path d="M415.67,509.8c0,1.27-0.72,2.29-1.61,2.29c-0.89,0-1.61-1.03-1.61-2.29c0-1.27,0.72-2.29,1.61-2.29
	C414.95,507.51,415.67,508.53,415.67,509.8z"/>
<ellipse transform="matrix(0.3931 -0.9195 0.9195 0.3931 -249.2598 612.1471)" cx="339.09" cy="494.89" rx="2.12" ry="1.61"/>
<ellipse transform="matrix(0.3931 -0.9195 0.9195 0.3931 -248.2375 618.5955)" cx="344.48" cy="497.34" rx="2.12" ry="1.61"/>
<path class="st36" d="M451.37,494.39"/>
<g>
	<g>
		<path d="M475.69,490.37l-4.69-11.9c0,0-0.19,2.11-1.58,2.88c-1.39,0.77-3.57,1.56-3.95,3.78s-0.1,6.1-0.1,6.1l-8.78,2.32
			c0,0-1.51,0.14-1.99-0.36c-0.48-0.5-2.51-2.54-0.72-2.84c1.8-0.3,4.69-1.16,4.69-1.16l-1.77-6.85c0,0,0.48,2.23-2.75,2.85
			c-0.5,0.05-4.88,0-4.69,4.07c0,0-0.1,2.15,2.13,5.12c0.12,0.22-0.48,0.38-0.48,0.38l-5.62,0.98l-1.96-10.75
			c0,0-0.72,1.38-3.04,2.47c-2.2,1.03-2.64,1.22-3.64,2.37c-0.97,1.11-1.58,3.14-1.41,6.03c0.12,2.05,0.41,4.4,0.56,5.59
			c0.06,0.44,0.45,0.76,0.89,0.73c18.38-1.15,37.29-8.15,38.47-8.86C476.46,492.62,475.69,490.37,475.69,490.37z M438.5,496.57
			c-0.18-0.73,0.29-2.99,1.05-3.83c0.5-0.56,1.29-0.65,1.73-0.66c0.19,0,0.35,0.14,0.37,0.33l0.49,3.75L438.5,496.57z
			 M468.17,490.33c-0.32-0.68-0.28-2.99,0.3-3.96c0.4-0.66,1.19-0.9,1.61-0.99c0.16-0.03,0.32,0.06,0.37,0.22l1.21,3.63
			L468.17,490.33z"/>
	</g>
</g>
<path class="st37" d="M421.23,490.08"/>
<g>
	<g>
		<path d="M421.49,501.51l-0.26-11.43c-2.87,1.56-2.87,3.7-2.87,3.7v4.47h-10.53v-11.01c0,0-0.26,0.22-1.02,0.8
			c-0.77,0.57-2.39,0.8-3.51,1.02c-6.26,1.88-5.36,13.95-5.36,13.95h5.81v3.29h-6.1v1.85c0,0-0.16,3.7,4.79,3.57
			c4.95-0.13,4.63-4.88,4.63-4.88v-3.57c0,0,10.76,0.16,12.64,0C421.58,503.1,421.49,501.51,421.49,501.51z M404.31,497.81h-2.52
			c0,0,0,0,0-0.48c0.03-2.3,2.52-3.64,2.52-3.64V497.81z"/>
	</g>
</g>
<path d="M388.54,495.29l-1.36,8.71l-4.28-0.67c0,0-0.7,4.18,3.03,5.04c3.73,0.86,4.69-3.64,4.69-3.64l1.79-12.77
	C392.41,491.96,389.13,492.84,388.54,495.29z"/>
<path d="M326.73,480.54c19.85,12.45,46.61,17.82,51.16,18.85c4.55,1.03,4.5-1.17,4.5-1.17l2.35-11.54c0,0-3.18,0.81-3.53,2.35
	c-0.35,1.53-1.18,5.74-1.18,5.74l-2.36-0.61l1.69-6.73c0,0-3.22,0.7-3.57,1.98c-0.35,1.28-0.96,4.21-0.96,4.21l-2.36-0.67l1.21-4.6
	c0,0-3.35,0.58-3.8,1.74c-0.45,1.16-0.61,2.12-1.47,1.86c-0.76-0.22-5.04-1.49-6.09-1.8c-0.16-0.05-0.29-0.14-0.37-0.28
	c-0.29-0.47-0.89-1.7-0.52-3.29c0.08-0.33,0.4-0.56,0.74-0.49c1.99,0.43,4.52,1.2,4.52,1.2s0.57,0.32,1.09-1.31s1.88-5.74,1.88-5.74
	s-1.05,1.34-1.63,1.53c-0.57,0.19-2.11,0.29-3.54-0.26c-1.44-0.54-4.02-1.47-5.23,1.6c-1.08,2.72-1,5.2-0.96,5.71
	c0,0.05-0.04,0.08-0.09,0.06l-5.48-2.19c-0.18-0.07-0.26-0.28-0.19-0.45l3.02-6.99c0,0-3.7,0.67-4.5,2.46
	c-0.57,1.27-1.2,2.72-1.52,3.45c-0.11,0.26-0.42,0.38-0.68,0.25l-7.69-3.62c-0.21-0.1-0.3-0.36-0.19-0.56l1.84-3.51
	c0,0,2.17-3.48-0.16-4.72c-2.33-1.24-4.63-2.36-4.63-2.36s-1.24-0.51-1.18-2.84c-1.76,3.19-3.13,5.33-3.13,5.33l4.79,2.62
	c0,0,1.28,0.54,0.86,1.56c-0.28,0.7-0.81,1.76-1.11,2.35c-0.13,0.25-0.44,0.35-0.69,0.23l-7.78-3.89L326.73,480.54z"/>
</svg>
